<mxfile host="app.diagrams.net" agent="Mozilla/5.0 (Windows NT 10.0; Win64; x64) AppleWebKit/537.36 (KHTML, like Gecko) Chrome/133.0.0.0 Safari/537.36 Edg/133.0.0.0" version="26.0.16">
  <diagram name="第 1 页" id="6iW3DI0KkoUzo9-Ivbpx">
    <mxGraphModel dx="542" dy="380" grid="0" gridSize="10" guides="1" tooltips="1" connect="1" arrows="1" fold="1" page="1" pageScale="1" pageWidth="827" pageHeight="1169" math="0" shadow="0">
      <root>
        <mxCell id="0" />
        <mxCell id="1" parent="0" />
        <mxCell id="ZPKQ-zMuxPFbMJoYlC7H-3" value="" style="rounded=0;whiteSpace=wrap;html=1;fillColor=#e1d5e7;strokeColor=#9673a6;" vertex="1" parent="1">
          <mxGeometry x="100" y="240" width="448" height="1530" as="geometry" />
        </mxCell>
        <mxCell id="ZPKQ-zMuxPFbMJoYlC7H-6" value="" style="edgeStyle=orthogonalEdgeStyle;rounded=0;orthogonalLoop=1;jettySize=auto;html=1;" edge="1" parent="1" source="ZPKQ-zMuxPFbMJoYlC7H-1" target="ZPKQ-zMuxPFbMJoYlC7H-5">
          <mxGeometry relative="1" as="geometry" />
        </mxCell>
        <mxCell id="ZPKQ-zMuxPFbMJoYlC7H-1" value="argv:&lt;div&gt;页表指针&lt;/div&gt;&lt;div&gt;虚拟地址&lt;/div&gt;&lt;div&gt;地址的长度（字节为单位）&lt;/div&gt;&lt;div&gt;物理地址&lt;/div&gt;&lt;div&gt;页的属性&lt;/div&gt;" style="rounded=1;whiteSpace=wrap;html=1;" vertex="1" parent="1">
          <mxGeometry x="239" y="276" width="179" height="86" as="geometry" />
        </mxCell>
        <mxCell id="ZPKQ-zMuxPFbMJoYlC7H-4" value="mappages" style="text;html=1;align=center;verticalAlign=middle;whiteSpace=wrap;rounded=0;" vertex="1" parent="1">
          <mxGeometry x="117" y="260" width="60" height="30" as="geometry" />
        </mxCell>
        <mxCell id="ZPKQ-zMuxPFbMJoYlC7H-8" value="" style="edgeStyle=orthogonalEdgeStyle;rounded=0;orthogonalLoop=1;jettySize=auto;html=1;" edge="1" parent="1" source="ZPKQ-zMuxPFbMJoYlC7H-5" target="ZPKQ-zMuxPFbMJoYlC7H-7">
          <mxGeometry relative="1" as="geometry" />
        </mxCell>
        <mxCell id="ZPKQ-zMuxPFbMJoYlC7H-5" value="将虚拟地址以及虚拟地址加上长度后得到的虚拟地址的结束地址都向下进行地址对齐" style="whiteSpace=wrap;html=1;rounded=1;" vertex="1" parent="1">
          <mxGeometry x="256.25" y="390" width="144.5" height="83" as="geometry" />
        </mxCell>
        <mxCell id="ZPKQ-zMuxPFbMJoYlC7H-7" value="进入到循环处理的过程中" style="whiteSpace=wrap;html=1;rounded=1;" vertex="1" parent="1">
          <mxGeometry x="268.5" y="496" width="120" height="60" as="geometry" />
        </mxCell>
        <mxCell id="ZPKQ-zMuxPFbMJoYlC7H-11" value="" style="rounded=0;whiteSpace=wrap;html=1;fillColor=#dae8fc;strokeColor=#6c8ebf;" vertex="1" parent="1">
          <mxGeometry x="168" y="577" width="334" height="735" as="geometry" />
        </mxCell>
        <mxCell id="ZPKQ-zMuxPFbMJoYlC7H-15" value="" style="edgeStyle=orthogonalEdgeStyle;rounded=0;orthogonalLoop=1;jettySize=auto;html=1;" edge="1" parent="1" source="ZPKQ-zMuxPFbMJoYlC7H-9" target="ZPKQ-zMuxPFbMJoYlC7H-14">
          <mxGeometry relative="1" as="geometry" />
        </mxCell>
        <mxCell id="ZPKQ-zMuxPFbMJoYlC7H-9" value="argv:&lt;div&gt;页表指针&lt;/div&gt;&lt;div&gt;虚拟地址&lt;/div&gt;&lt;div&gt;分配的信号&lt;/div&gt;" style="whiteSpace=wrap;html=1;rounded=1;" vertex="1" parent="1">
          <mxGeometry x="268.5" y="602" width="120" height="60" as="geometry" />
        </mxCell>
        <mxCell id="ZPKQ-zMuxPFbMJoYlC7H-12" style="edgeStyle=orthogonalEdgeStyle;rounded=0;orthogonalLoop=1;jettySize=auto;html=1;" edge="1" parent="1" source="ZPKQ-zMuxPFbMJoYlC7H-7" target="ZPKQ-zMuxPFbMJoYlC7H-9">
          <mxGeometry relative="1" as="geometry" />
        </mxCell>
        <mxCell id="ZPKQ-zMuxPFbMJoYlC7H-13" value="walk" style="text;html=1;align=center;verticalAlign=middle;whiteSpace=wrap;rounded=0;" vertex="1" parent="1">
          <mxGeometry x="184" y="590" width="60" height="30" as="geometry" />
        </mxCell>
        <mxCell id="ZPKQ-zMuxPFbMJoYlC7H-17" value="" style="edgeStyle=orthogonalEdgeStyle;rounded=0;orthogonalLoop=1;jettySize=auto;html=1;" edge="1" parent="1" source="ZPKQ-zMuxPFbMJoYlC7H-14" target="ZPKQ-zMuxPFbMJoYlC7H-16">
          <mxGeometry relative="1" as="geometry" />
        </mxCell>
        <mxCell id="ZPKQ-zMuxPFbMJoYlC7H-14" value="如果虚拟地址超过虚拟地址最大值，那么断言发生" style="whiteSpace=wrap;html=1;rounded=1;" vertex="1" parent="1">
          <mxGeometry x="268.5" y="691" width="120" height="60" as="geometry" />
        </mxCell>
        <mxCell id="ZPKQ-zMuxPFbMJoYlC7H-16" value="两次循环，每次循环先得到一级偏移量，然后得到页表指针加上该偏移量的指针，该指针指向的值即为二级物理页表指针，将该指针指向的值与pte_v做与运算，判断该页表项是否合法，如果合法，那么继续将页表指针指向二级页表的页表起始位置，然后再次上述的操作，只不过是二级偏移量，同时页表项指针指向二级页表的页表项，判断其内容中的vaild位，合法则将页表指针指向三级页表的起始位置，最终返回三级页表的页表项的指针，如果中间出现不合法的情况，则kalloc分配一个新的页表，然后将这个新的物理地址转换为页表项，依次类推，总之会给到最后三级页表的页表项指针" style="whiteSpace=wrap;html=1;rounded=1;" vertex="1" parent="1">
          <mxGeometry x="268.5" y="777" width="120" height="460" as="geometry" />
        </mxCell>
        <mxCell id="ZPKQ-zMuxPFbMJoYlC7H-18" value="通过执行walk得到三级页表的页表项指针，判断其有效位是否为1，如果是，则是重复映射，则返回错误，如果不是合法的，则将需要映射的物理地址转换为页表项，同时将页表项的属性也加入到该页表项中，检查此时虚拟地址是否已经到结束地址了，如果没到，则将虚拟地址和物理地址都加上一页的大小" style="rounded=1;whiteSpace=wrap;html=1;" vertex="1" parent="1">
          <mxGeometry x="269" y="1331" width="120" height="284" as="geometry" />
        </mxCell>
        <mxCell id="ZPKQ-zMuxPFbMJoYlC7H-19" value="" style="endArrow=classic;html=1;rounded=0;exitX=0.5;exitY=1;exitDx=0;exitDy=0;entryX=0.5;entryY=0;entryDx=0;entryDy=0;" edge="1" parent="1" source="ZPKQ-zMuxPFbMJoYlC7H-16" target="ZPKQ-zMuxPFbMJoYlC7H-18">
          <mxGeometry width="50" height="50" relative="1" as="geometry">
            <mxPoint x="429" y="1273" as="sourcePoint" />
            <mxPoint x="479" y="1223" as="targetPoint" />
          </mxGeometry>
        </mxCell>
      </root>
    </mxGraphModel>
  </diagram>
</mxfile>
